<?xml version="1.0" encoding="utf-8"?>
<!DOCTYPE svg PUBLIC "-//W3C//DTD SVG 20010904//EN" "http://www.w3.org/TR/2001/REC-SVG-20010904/DTD/svg10.dtd">
<svg version="1.0" xmlns="http://www.w3.org/2000/svg" width="16pt" height="16pt" viewBox="0 0 16 16" style="" preserveAspectRatio="xMidYMid meet">
<g fill="#DA2460FF" stroke="#DA2460FF">
<path d="M 1.655 2.829 C -0.668 5.395 -0.478 11.522 2.000 14.000 C 4.714 16.714 11.286 16.714 14.000 14.000 C 18.029 9.971 15.732 1.000 10.671 1.000 C 8.562 1.000 8.490 2.590 10.563 3.386 C 13.146 4.377 11.098 6.046 7.975 5.496 C 5.571 5.072 4.815 5.458 3.576 7.742 C 2.472 9.777 2.070 10.029 2.040 8.705 C 2.018 7.717 3.125 5.784 4.500 4.409 C 5.875 3.034 7.000 1.705 7.000 1.455 C 7.000 0.223 3.108 1.224 1.655 2.829 M 10.500 12.500 C 10.500 14.063 6.453 14.250 5.203 12.745 C 4.300 11.656 4.706 11.404 7.291 11.447 C 9.056 11.476 10.500 11.950 10.500 12.500 M 14.000 8.000 C 14.000 8.550 13.550 9.000 13.000 9.000 C 12.450 9.000 12.000 8.550 12.000 8.000 C 12.000 7.450 12.450 7.000 13.000 7.000 C 13.550 7.000 14.000 7.450 14.000 8.000 "/></g>
</svg>
