<?xml version="1.0" standalone="no"?><!DOCTYPE svg PUBLIC "-//W3C//DTD SVG 1.1//EN" "http://www.w3.org/Graphics/SVG/1.1/DTD/svg11.dtd"><svg t="1691325426587" class="icon" viewBox="0 0 1024 1024" version="1.1" xmlns="http://www.w3.org/2000/svg" p-id="93041" xmlns:xlink="http://www.w3.org/1999/xlink" width="200" height="200"><path d="M773.0176 51.2A147.712 147.712 0 0 1 921.6 199.7824v573.2352A147.712 147.712 0 0 1 773.0176 921.6H199.7824A147.712 147.712 0 0 1 51.2 773.0176V199.7824A147.712 147.712 0 0 1 199.7824 51.2h573.2352zM645.632 397.2608h-50.944a19.0464 19.0464 0 0 0-19.0976 19.0976v258.9696h-44.5952V505.4976a19.0464 19.0464 0 0 0-19.0976-19.0976h-50.9952a19.0464 19.0464 0 0 0-19.0976 19.0976v169.8304h-44.544v-80.64a19.0464 19.0464 0 0 0-19.1488-19.0976H327.168a19.0464 19.0464 0 0 0-19.0976 19.0976v80.64h-33.9456c-6.4 0-10.6496 4.2496-10.6496 10.6496v16.9472c0 4.2496 4.2496 8.4992 8.4992 8.4992h426.7008c6.4 0 10.6496-4.2496 10.6496-10.5984v-14.848c0-6.4-4.2496-10.6496-10.6496-10.6496h-33.9456V416.3584a19.0464 19.0464 0 0 0-19.0976-19.0976z m-23.3472-133.7856h-70.0928c-6.3488 0-10.5984 4.2496-10.5984 10.6496v16.9472c0 4.2496 4.2496 8.4992 8.4992 8.4992h19.0976L492.7488 376.0128l-46.6944-40.3456-8.4992 8.4992L295.3216 486.4l27.648 27.5968 125.2352-125.2352 50.944 42.4448 27.5968-27.648-2.1504-2.048 74.3424-74.3424v19.0976c0 6.4 4.1984 10.6496 10.5984 10.6496h14.848c6.3488 0 10.5984-4.2496 10.5984-10.6496V276.224c-4.1984-8.4992-8.448-12.7488-12.6976-12.7488z" fill="#639EF6" p-id="93042"></path></svg>