<?xml version="1.0" encoding="utf-8"?>
<!DOCTYPE svg PUBLIC "-//W3C//DTD SVG 20010904//EN" "http://www.w3.org/TR/2001/REC-SVG-20010904/DTD/svg10.dtd">
<svg version="1.0" xmlns="http://www.w3.org/2000/svg" width="48pt" height="48pt" viewBox="0 0 48 48" style="" preserveAspectRatio="xMidYMid meet">
<g fill="#B70000FF" stroke="#B70000FF">
<path d="M 16.500 5.573 C 12.623 7.589 8.300 11.613 10.448 11.206 C 11.463 11.014 12.000 11.661 12.000 13.079 C 12.000 14.848 12.263 15.027 13.436 14.053 C 14.513 13.159 15.397 13.142 16.974 13.986 C 18.900 15.017 19.052 15.838 18.788 23.806 L 18.500 32.500 15.204 32.488 C 12.149 32.476 11.930 32.692 12.204 35.439 C 12.884 42.256 25.642 44.744 34.199 39.729 C 39.516 36.614 44.014 28.942 43.978 23.054 C 43.934 16.007 38.117 7.494 31.685 5.064 C 27.591 3.517 19.961 3.772 16.500 5.573 M 34.920 14.403 C 35.658 15.293 35.977 18.859 35.792 24.153 L 35.500 32.500 32.500 32.500 L 29.500 32.500 29.206 24.019 C 28.959 16.904 29.191 15.333 30.647 14.269 C 32.854 12.655 33.485 12.675 34.920 14.403 M 25.920 14.403 C 26.658 15.293 26.977 18.859 26.792 24.153 C 26.514 32.093 26.384 32.516 24.113 32.837 C 20.781 33.309 20.033 31.571 20.015 23.321 C 20.004 18.113 20.431 15.712 21.571 14.571 C 23.509 12.634 24.422 12.599 25.920 14.403 "/></g>
<g fill="#B00000FF" stroke="#B00000FF">
<path d="M 8.571 12.571 C 6.770 14.373 6.812 14.071 6.983 24.000 C 7.090 30.221 7.547 32.163 9.660 35.385 L 12.207 39.270 12.057 25.135 C 11.974 17.361 11.509 11.000 11.024 11.000 C 10.540 11.000 9.436 11.707 8.571 12.571 "/></g>
<g fill="#00000001" stroke="#00000001">
<path d="M 2.479 24.682 C 3.456 37.004 12.048 45.200 23.988 45.200 C 27.779 45.200 31.047 44.507 33.747 43.129 C 41.413 39.218 46.666 30.245 45.718 22.678 C 45.324 19.530 45.319 19.535 45.160 23.123 C 44.948 27.932 41.796 34.863 38.298 38.214 C 35.250 41.135 28.288 44.000 24.240 44.000 C 13.949 44.000 5.112 35.747 2.929 24.097 L 2.067 19.500 2.479 24.682 "/></g>
<g fill="#AD0000FF" stroke="#AD0000FF">
<path d="M 5.788 20.000 C 5.397 21.925 5.475 25.075 5.962 27.000 C 6.698 29.909 6.818 29.318 6.674 23.500 C 6.533 17.827 6.365 17.164 5.788 20.000 "/></g>
<g fill="#00000001" stroke="#00000001">
<path d="M 38.635 8.030 C 39.809 9.389 41.736 12.300 42.916 14.500 C 44.207 16.903 44.799 17.502 44.401 16.000 C 43.615 13.038 40.807 8.871 38.297 6.941 C 37.048 5.982 37.152 6.314 38.635 8.030 "/></g>
<g fill="#00000001" stroke="#00000001">
<path d="M 4.081 14.849 C 3.486 15.960 3.003 17.461 3.006 18.184 C 3.010 18.908 3.693 18.196 4.524 16.601 C 5.355 15.007 5.839 13.506 5.599 13.266 C 5.359 13.025 4.676 13.738 4.081 14.849 "/></g>
<g fill="#6A00001F" stroke="#6A00001F">
<path d="M 10.000 8.924 L 7.500 11.566 10.000 8.924 L 12.500 6.282 10.000 8.924 "/></g>
<g fill="#00000001" stroke="#00000001">
<path d="M 11.900 5.630 C 10.608 7.196 10.693 7.224 12.997 5.996 C 14.371 5.264 15.001 4.500 14.397 4.299 C 13.794 4.098 12.670 4.697 11.900 5.630 "/></g>
<g fill="#00000001" stroke="#00000001">
<path d="M 33.500 4.592 C 36.223 5.965 36.321 5.962 34.559 4.552 C 33.491 3.699 32.141 3.018 31.559 3.040 C 30.976 3.062 31.850 3.761 33.500 4.592 "/></g>
<g fill="#3F000018" stroke="#3F000018">
<path d="M 38.000 8.000 L 40.500 10.500 38.000 8.000 L 35.500 5.500 38.000 8.000 "/></g>
<g fill="#21000017" stroke="#21000017">
<path d="M 9.000 8.888 L 7.500 10.563 9.000 8.888 L 10.500 7.212 9.000 8.888 "/></g>
</svg>
