<?xml version="1.0" encoding="utf-8"?>
<!DOCTYPE svg PUBLIC "-//W3C//DTD SVG 20010904//EN" "http://www.w3.org/TR/2001/REC-SVG-20010904/DTD/svg10.dtd">
<svg version="1.0" xmlns="http://www.w3.org/2000/svg" width="32pt" height="32pt" viewBox="0 0 32 32" style="" preserveAspectRatio="xMidYMid meet">
<g fill="#3F4257FF" stroke="#3F4257FF">
<path d="M 7.284 2.093 C 2.429 5.203 -0.000 9.840 0.000 16.000 C 0.000 26.021 6.595 32.356 16.464 31.815 C 19.509 31.648 22.000 31.145 22.000 30.697 C 22.000 30.249 22.450 30.160 23.000 30.500 C 23.550 30.840 24.000 30.694 24.000 30.176 C 24.000 29.657 24.933 28.989 26.074 28.691 C 27.215 28.393 28.393 27.215 28.691 26.074 C 28.989 24.933 29.657 24.000 30.176 24.000 C 30.694 24.000 30.840 23.550 30.500 23.000 C 30.160 22.450 30.298 22.000 30.807 22.000 C 32.548 22.000 31.600 9.685 29.634 6.768 C 25.100 0.039 14.088 -2.264 7.284 2.093 M 20.750 3.324 C 21.438 3.329 22.000 3.656 22.000 4.050 C 22.000 4.444 22.855 4.990 23.900 5.264 C 26.529 5.951 30.310 14.725 29.385 17.987 C 28.993 19.369 28.746 20.838 28.836 21.250 C 28.926 21.663 28.602 22.000 28.117 22.000 C 27.631 22.000 27.016 22.831 26.751 23.846 C 26.025 26.619 17.591 30.385 14.224 29.438 C 12.726 29.017 11.163 28.746 10.750 28.836 C 10.338 28.926 10.000 28.550 10.000 28.000 C 10.000 27.450 9.304 27.000 8.454 27.000 C 6.468 27.000 1.850 17.164 2.585 14.500 C 4.065 9.140 6.587 6.000 10.957 4.078 C 13.483 2.968 16.388 2.355 17.500 2.698 C 18.600 3.037 20.063 3.319 20.750 3.324 "/></g>
<g fill="#3F4257FF" stroke="#3F4257FF">
<path d="M 23.676 17.955 C 22.673 18.298 21.902 18.908 21.964 19.310 C 22.518 22.939 14.130 25.273 11.171 22.314 C 10.209 21.352 9.395 21.205 8.729 21.871 C 7.805 22.795 9.998 26.133 11.464 26.036 C 11.759 26.016 12.113 26.048 12.250 26.106 C 12.388 26.164 13.980 26.295 15.788 26.397 C 18.053 26.524 19.999 25.791 22.040 24.041 C 25.501 21.073 26.608 16.953 23.676 17.955 "/></g>
<g fill="#3F4257FF" stroke="#3F4257FF">
<path d="M 8.607 11.582 C 7.727 13.876 7.798 14.000 10.000 14.000 C 12.202 14.000 12.273 13.876 11.393 11.582 C 10.617 9.558 9.383 9.558 8.607 11.582 "/></g>
<g fill="#FF5E3AFF" stroke="#FF5E3AFF">
<path d="M 19.000 13.000 C 19.000 13.550 20.350 14.000 22.000 14.000 C 23.650 14.000 25.000 13.550 25.000 13.000 C 25.000 12.450 23.650 12.000 22.000 12.000 C 20.350 12.000 19.000 12.450 19.000 13.000 "/></g>
<g fill="#FFCEC0FF" stroke="#FFCEC0FF">
<path d="M 18.408 13.225 C 18.555 13.951 20.031 14.476 21.833 14.444 C 24.698 14.394 24.722 14.370 22.083 14.194 C 20.479 14.088 18.938 13.539 18.658 12.975 C 18.379 12.411 18.266 12.524 18.408 13.225 "/></g>
<g fill="#FF967FFF" stroke="#FF967FFF">
<path d="M 22.207 11.951 C 24.247 12.347 25.682 12.295 25.398 11.836 C 25.114 11.376 23.446 11.052 21.691 11.115 L 18.500 11.230 22.207 11.951 "/></g>
<g fill="#828492FF" stroke="#828492FF">
<path d="M 25.378 25.378 L 24.500 26.256 25.378 25.378 L 26.256 24.500 25.378 25.378 "/></g>
<g fill="#828492FF" stroke="#828492FF">
<path d="M 25.500 6.500 L 27.000 8.000 25.500 6.500 L 24.000 5.000 25.500 6.500 "/></g>
</svg>
