<?xml version="1.0" encoding="utf-8"?>
<!DOCTYPE svg PUBLIC "-//W3C//DTD SVG 20010904//EN" "http://www.w3.org/TR/2001/REC-SVG-20010904/DTD/svg10.dtd">
<svg version="1.0" xmlns="http://www.w3.org/2000/svg" width="32pt" height="32pt" viewBox="0 0 32 32" style="" preserveAspectRatio="xMidYMid meet">
<g fill="#3370FFFF" stroke="#3370FFFF">
<path d="M 3.000 17.887 C 3.000 23.122 3.301 24.094 5.250 25.159 C 8.711 27.051 17.232 26.733 20.501 24.592 L 23.304 22.755 17.179 20.746 C 13.810 19.642 9.242 17.187 7.027 15.291 L 3.000 11.844 3.000 17.887 "/></g>
<g fill="#133C9AFF" stroke="#133C9AFF">
<path d="M 20.378 14.303 C 15.369 18.357 14.773 19.293 16.563 20.295 C 19.423 21.896 25.204 20.636 27.094 18.000 C 31.869 11.339 27.210 8.774 20.378 14.303 "/></g>
<g fill="#00D6B9FF" stroke="#00D6B9FF">
<path d="M 9.236 6.042 C 10.191 6.615 12.461 9.034 14.281 11.417 L 17.589 15.750 20.485 13.259 C 23.227 10.900 23.302 10.629 21.907 8.134 C 20.580 5.763 19.788 5.475 13.966 5.250 C 9.120 5.062 7.935 5.260 9.236 6.042 "/></g>
<g fill="#20DBC1FF" stroke="#20DBC1FF">
<path d="M 11.000 8.000 L 13.500 10.500 11.000 8.000 L 8.500 5.500 11.000 8.000 "/></g>
</svg>
