<?xml version="1.0" standalone="no"?><!DOCTYPE svg PUBLIC "-//W3C//DTD SVG 1.1//EN" "http://www.w3.org/Graphics/SVG/1.1/DTD/svg11.dtd"><svg t="1691325465197" class="icon" viewBox="0 0 1056 1024" version="1.1" xmlns="http://www.w3.org/2000/svg" p-id="97051" xmlns:xlink="http://www.w3.org/1999/xlink" width="206.25" height="200"><path d="M872 864h-672c-9.6 0-16-6.4-16-16v-22.4c0-9.6 6.4-16 16-16h54.4v-128c0-16 12.8-32 32-32h80c16 0 32 12.8 32 32v128h70.4V544c0-16 12.8-32 32-32h80c16 0 32 12.8 32 32v268.8h70.4V403.2c0-16 12.8-32 32-32h80c16 0 32 12.8 32 32v409.6h54.4c9.6 0 16 6.4 16 16v22.4c-9.6 6.4-16 12.8-25.6 12.8z m-144-563.2c-9.6 0-16-6.4-16-16V256l-156.8 163.2-80-67.2-198.4 198.4-41.6-41.6 224-224 12.8-16 76.8 64 121.6-121.6h-28.8c-9.6 0-16-6.4-16-16v-19.2c0-9.6 6.4-16 12.8-16h108.8c9.6 0 16 6.4 16 16v108.8c0 9.6-6.4 16-16 16h-19.2z" fill="#639EF6" p-id="97052"></path></svg>