<?xml version="1.0" encoding="utf-8"?>
<!DOCTYPE svg PUBLIC "-//W3C//DTD SVG 20010904//EN" "http://www.w3.org/TR/2001/REC-SVG-20010904/DTD/svg10.dtd">
<svg version="1.0" xmlns="http://www.w3.org/2000/svg" width="16pt" height="16pt" viewBox="0 0 16 16" style="" preserveAspectRatio="xMidYMid meet">
<g fill="#00326DFF" stroke="#00326DFF">
<path d="M 2.174 2.314 C 0.468 4.130 0.000 5.853 0.000 10.314 L 0.000 16.000 5.826 16.000 C 13.739 16.000 16.000 13.708 16.000 5.686 L 16.000 0.000 10.174 0.000 C 5.378 0.000 3.965 0.409 2.174 2.314 M 12.139 13.033 C 10.648 14.276 8.289 15.000 5.734 15.000 C 1.753 15.000 1.718 14.969 3.500 13.000 C 4.821 11.540 6.551 11.009 9.905 11.033 L 14.500 11.067 12.139 13.033 M 12.500 3.000 C 11.179 4.460 9.449 4.991 6.095 4.967 L 1.500 4.933 3.861 2.967 C 5.352 1.724 7.711 1.000 10.266 1.000 C 14.247 1.000 14.282 1.031 12.500 3.000 M 5.000 7.878 C 5.000 8.910 4.325 10.315 3.500 11.000 C 2.221 12.061 2.000 11.785 2.000 9.122 C 2.000 7.014 2.487 6.000 3.500 6.000 C 4.325 6.000 5.000 6.845 5.000 7.878 M 12.563 10.000 C 10.693 10.000 10.494 6.912 12.250 5.137 C 13.253 4.124 13.562 4.480 13.813 6.937 C 14.043 9.182 13.709 10.000 12.563 10.000 M 9.000 8.000 C 9.000 9.100 8.550 10.000 8.000 10.000 C 7.450 10.000 7.000 9.100 7.000 8.000 C 7.000 6.900 7.450 6.000 8.000 6.000 C 8.550 6.000 9.000 6.900 9.000 8.000 "/></g>
<g fill="#75A5CCFF" stroke="#75A5CCFF">
<path d="M 4.500 13.000 C 2.726 14.960 2.753 15.000 5.845 15.000 C 8.333 15.000 9.000 14.577 9.000 13.000 C 9.000 11.900 8.395 11.000 7.655 11.000 C 6.915 11.000 5.495 11.900 4.500 13.000 "/></g>
<g fill="#75A5CCFF" stroke="#75A5CCFF">
<path d="M 7.000 3.000 C 7.000 5.564 9.179 5.564 11.500 3.000 C 13.274 1.040 13.247 1.000 10.155 1.000 C 7.667 1.000 7.000 1.423 7.000 3.000 "/></g>
<g fill="#3B6C9DFF" stroke="#3B6C9DFF">
<path d="M 4.000 12.888 L 2.500 14.563 4.000 12.888 L 5.500 11.212 4.000 12.888 "/></g>
<g fill="#3B6C9DFF" stroke="#3B6C9DFF">
<path d="M 12.000 2.888 L 10.500 4.563 12.000 2.888 L 13.500 1.212 12.000 2.888 "/></g>
<g fill="#75A5CCFF" stroke="#75A5CCFF">
<path d="M 11.000 12.200 C 11.000 13.133 11.267 13.133 12.200 12.200 C 13.133 11.267 13.133 11.000 12.200 11.000 C 11.540 11.000 11.000 11.540 11.000 12.200 "/></g>
<g fill="#75A5CCFF" stroke="#75A5CCFF">
<path d="M 3.624 3.799 C 3.212 4.466 3.390 5.000 4.024 5.000 C 4.653 5.000 4.987 4.460 4.766 3.799 C 4.455 2.865 4.202 2.865 3.624 3.799 "/></g>
<g fill="#3B6C9DFF" stroke="#3B6C9DFF">
<path d="M 12.378 12.378 L 11.500 13.256 12.378 12.378 L 13.256 11.500 12.378 12.378 "/></g>
<g fill="#3B6C9DFF" stroke="#3B6C9DFF">
<path d="M 3.378 3.378 L 2.500 4.256 3.378 3.378 L 4.256 2.500 3.378 3.378 "/></g>
</svg>
