<?xml version="1.0" encoding="utf-8"?>
<!DOCTYPE svg PUBLIC "-//W3C//DTD SVG 20010904//EN" "http://www.w3.org/TR/2001/REC-SVG-20010904/DTD/svg10.dtd">
<svg version="1.0" xmlns="http://www.w3.org/2000/svg" width="64pt" height="64pt" viewBox="0 0 64 64" style="" preserveAspectRatio="xMidYMid meet">
<g fill="#4A9DEBFF" stroke="#4A9DEBFF">
<path d="M 23.742 11.310 C 20.319 12.547 17.180 15.924 15.929 19.714 C 14.770 23.226 15.453 25.503 16.943 23.093 C 17.401 22.351 18.277 22.053 18.888 22.431 C 19.500 22.809 20.000 22.753 20.000 22.307 C 20.000 21.861 21.463 21.393 23.250 21.267 C 28.724 20.881 29.272 20.821 36.750 19.773 C 40.738 19.214 44.000 18.434 44.000 18.039 C 44.000 16.633 37.419 11.360 36.179 11.774 C 35.165 12.112 35.167 12.520 36.191 13.847 C 36.944 14.823 36.535 14.681 35.192 13.500 C 33.942 12.400 33.387 11.613 33.960 11.750 C 34.532 11.888 35.000 11.607 35.000 11.126 C 35.000 10.058 26.837 10.191 23.742 11.310 "/></g>
<g fill="#FFC0B7FF" stroke="#FFC0B7FF">
<path d="M 32.586 43.138 C 32.831 43.536 32.575 44.144 32.016 44.490 C 31.457 44.835 31.000 46.216 31.000 47.559 C 31.000 50.063 29.625 50.820 28.470 48.951 C 28.030 48.240 27.348 48.296 26.348 49.126 C 25.061 50.194 25.093 50.473 26.603 51.318 C 27.555 51.850 29.811 52.619 31.617 53.026 C 34.184 53.605 35.268 53.361 36.584 51.907 C 37.510 50.884 38.618 50.264 39.046 50.528 C 40.210 51.248 39.606 48.907 37.702 45.312 C 36.619 43.268 35.317 42.176 34.075 42.269 C 33.010 42.350 32.340 42.741 32.586 43.138 "/></g>
<g fill="#FFC0B7FF" stroke="#FFC0B7FF">
<path d="M 32.610 24.819 C 30.470 24.994 28.132 25.725 27.414 26.443 C 26.669 27.188 24.368 27.643 22.055 27.503 C 19.325 27.338 18.000 27.671 18.000 28.522 C 18.000 30.127 20.740 31.231 21.534 29.945 C 22.124 28.990 23.166 28.909 32.000 29.133 C 42.476 29.398 45.467 29.240 43.733 28.514 C 42.762 28.106 40.849 27.987 39.483 28.248 C 38.075 28.517 36.950 28.241 36.885 27.611 C 36.821 27.000 36.709 26.050 36.635 25.500 C 36.561 24.950 34.749 24.643 32.610 24.819 "/></g>
<g fill="#FFC0B7FF" stroke="#FFC0B7FF">
<path d="M 50.517 32.920 C 51.119 33.975 50.900 34.176 49.664 33.701 C 48.749 33.350 48.000 33.499 48.000 34.031 C 48.000 34.564 48.675 35.000 49.500 35.000 C 50.325 35.000 51.000 35.450 51.000 36.000 C 51.000 36.550 50.550 37.000 50.000 37.000 C 49.450 37.000 49.000 37.450 49.000 38.000 C 49.000 38.550 49.441 39.000 49.981 39.000 C 51.601 39.000 52.394 33.983 50.980 32.677 C 49.984 31.756 49.883 31.809 50.517 32.920 "/></g>
<g fill="#000000FF" stroke="#000000FF">
<path d="M 15.498 28.997 C 16.007 29.820 15.602 30.852 14.403 31.786 C 12.582 33.206 12.580 33.241 14.369 32.620 C 15.933 32.077 16.161 32.377 15.764 34.455 C 15.503 35.822 15.674 36.702 16.144 36.411 C 17.418 35.624 17.179 29.229 15.845 28.405 C 15.082 27.933 14.965 28.134 15.498 28.997 "/></g>
<g fill="#FFC0B7FF" stroke="#FFC0B7FF">
<path d="M 18.500 35.765 C 19.050 36.169 19.500 37.175 19.500 38.000 C 19.500 38.825 20.296 39.500 21.269 39.500 C 22.904 39.500 22.919 39.329 21.463 37.250 C 20.596 36.013 19.350 35.007 18.693 35.015 C 17.944 35.025 17.872 35.304 18.500 35.765 "/></g>
<g fill="#4F2308FF" stroke="#4F2308FF">
<path d="M 39.728 22.850 C 40.953 23.207 42.865 24.283 43.978 25.240 C 46.497 27.408 46.678 25.924 44.171 23.655 C 43.165 22.745 41.253 22.045 39.921 22.100 C 37.541 22.198 37.537 22.210 39.728 22.850 "/></g>
<g fill="#FFC0B7FF" stroke="#FFC0B7FF">
<path d="M 26.785 42.656 C 27.245 45.063 27.265 45.067 28.682 43.044 C 29.469 41.920 29.975 40.966 29.807 40.923 C 26.714 40.152 26.347 40.363 26.785 42.656 "/></g>
<g fill="#FFC0B7FF" stroke="#FFC0B7FF">
<path d="M 9.305 37.415 C 9.504 38.012 10.079 38.507 10.583 38.515 C 11.088 38.524 12.063 38.888 12.750 39.324 C 13.463 39.777 14.000 39.663 14.000 39.059 C 14.000 38.477 13.475 38.000 12.833 38.000 C 12.192 38.000 11.975 37.692 12.351 37.316 C 12.727 36.939 12.114 36.564 10.989 36.481 C 9.864 36.398 9.106 36.818 9.305 37.415 "/></g>
<g fill="#FFD2C9FF" stroke="#FFD2C9FF">
<path d="M 10.627 36.717 C 11.593 37.423 12.184 38.053 11.941 38.118 C 11.699 38.184 11.860 38.176 12.299 38.102 C 12.738 38.028 12.824 37.525 12.490 36.984 C 12.156 36.443 12.471 35.930 13.191 35.844 C 13.911 35.758 13.234 35.630 11.686 35.561 C 9.161 35.447 9.052 35.565 10.627 36.717 "/></g>
<g fill="#000000FF" stroke="#000000FF">
<path d="M 35.500 54.601 C 33.850 55.281 33.230 55.874 34.123 55.919 C 35.016 55.963 36.366 55.407 37.123 54.682 C 38.264 53.591 37.985 53.577 35.500 54.601 "/></g>
<g fill="#000000FF" stroke="#000000FF">
<path d="M 25.116 42.313 C 25.034 43.595 24.341 44.034 22.750 43.813 C 21.247 43.604 20.931 43.778 21.798 44.339 C 23.739 45.593 26.216 44.266 25.690 42.253 C 25.267 40.632 25.223 40.637 25.116 42.313 "/></g>
<g fill="#000000FF" stroke="#000000FF">
<path d="M 43.954 38.500 C 43.895 39.050 43.693 40.313 43.504 41.306 C 43.228 42.756 43.438 42.882 44.567 41.944 C 45.551 41.128 45.686 40.283 45.018 39.138 C 44.491 38.237 44.013 37.950 43.954 38.500 "/></g>
<g fill="#000000FF" stroke="#000000FF">
<path d="M 45.564 34.189 C 45.162 35.118 45.272 36.663 45.809 37.622 C 46.571 38.985 46.731 38.615 46.539 35.933 C 46.365 33.485 46.085 32.985 45.564 34.189 "/></g>
<g fill="#000000FF" stroke="#000000FF">
<path d="M 19.996 24.505 C 18.886 25.843 19.122 25.847 22.123 24.544 C 24.719 23.418 25.008 23.069 23.372 23.039 C 22.202 23.018 20.683 23.677 19.996 24.505 "/></g>
<g fill="#1C0000FF" stroke="#1C0000FF">
<path d="M 17.457 24.931 C 17.774 25.443 17.575 26.144 17.016 26.490 C 16.457 26.835 16.000 27.602 16.000 28.194 C 16.000 28.786 16.933 28.084 18.073 26.635 C 19.847 24.378 19.911 24.000 18.514 24.000 C 17.616 24.000 17.141 24.419 17.457 24.931 "/></g>
<g fill="#1C0000FF" stroke="#1C0000FF">
<path d="M 36.128 22.654 C 36.882 23.563 37.354 23.918 37.176 23.443 C 36.998 22.967 37.673 22.255 38.676 21.859 C 40.089 21.303 39.853 21.125 37.628 21.070 C 35.066 21.008 34.904 21.179 36.128 22.654 "/></g>
<g fill="#000000FF" stroke="#000000FF">
<path d="M 39.008 44.014 C 39.962 45.798 40.394 45.980 41.071 44.885 C 41.542 44.123 41.606 43.493 41.214 43.485 C 40.821 43.476 39.893 43.084 39.150 42.614 C 38.041 41.911 38.015 42.160 39.008 44.014 "/></g>
<g fill="#000000FF" stroke="#000000FF">
<path d="M 16.636 37.780 C 16.298 38.326 16.692 39.329 17.511 40.009 C 19.137 41.359 19.476 40.300 18.110 38.143 C 17.587 37.319 17.009 37.176 16.636 37.780 "/></g>
<g fill="#000000FF" stroke="#000000FF">
<path d="M 21.441 36.503 C 22.509 37.326 24.084 37.982 24.941 37.961 C 25.799 37.939 24.925 37.266 23.000 36.464 C 19.881 35.164 19.711 35.168 21.441 36.503 "/></g>
<g fill="#000000FF" stroke="#000000FF">
<path d="M 47.215 30.250 L 48.500 32.500 48.187 30.250 C 48.015 29.013 47.437 28.000 46.902 28.000 C 46.365 28.000 46.505 29.007 47.215 30.250 "/></g>
<g fill="#FFD2C9FF" stroke="#FFD2C9FF">
<path d="M 50.199 35.825 C 50.603 37.350 52.550 37.505 52.400 36.000 C 52.345 35.450 52.226 35.563 52.135 36.250 C 52.018 37.135 51.660 37.062 50.909 36.000 C 50.206 35.007 49.966 34.947 50.199 35.825 "/></g>
<g fill="#000000FF" stroke="#000000FF">
<path d="M 28.801 55.050 C 30.292 55.648 30.887 55.626 30.492 54.987 C 30.156 54.444 29.121 54.029 28.191 54.063 C 26.991 54.108 27.167 54.395 28.801 55.050 "/></g>
<g fill="#000000FF" stroke="#000000FF">
<path d="M 17.000 43.000 C 17.825 43.533 18.950 43.969 19.500 43.969 C 20.050 43.969 19.825 43.533 19.000 43.000 C 18.175 42.467 17.050 42.031 16.500 42.031 C 15.950 42.031 16.175 42.467 17.000 43.000 "/></g>
<g fill="#000000FF" stroke="#000000FF">
<path d="M 43.027 25.702 C 45.356 27.305 45.420 27.305 44.128 25.702 C 43.373 24.766 42.260 24.000 41.655 24.000 C 41.050 24.000 41.668 24.766 43.027 25.702 "/></g>
<g fill="#FFD2C9FF" stroke="#FFD2C9FF">
<path d="M 26.417 44.865 C 26.778 45.450 27.845 46.058 28.787 46.215 C 29.868 46.395 29.626 46.002 28.129 45.150 C 26.825 44.408 26.055 44.279 26.417 44.865 "/></g>
<g fill="#4F2308FF" stroke="#4F2308FF">
<path d="M 18.508 42.013 C 18.844 42.556 19.879 42.971 20.809 42.937 C 22.009 42.892 21.833 42.605 20.199 41.950 C 18.708 41.352 18.113 41.374 18.508 42.013 "/></g>
<g fill="#000000FF" stroke="#000000FF">
<path d="M 26.000 57.200 C 26.000 58.133 26.267 58.133 27.200 57.200 C 28.133 56.267 28.133 56.000 27.200 56.000 C 26.540 56.000 26.000 56.540 26.000 57.200 "/></g>
<g fill="#000000FF" stroke="#000000FF">
<path d="M 40.000 36.047 C 39.010 36.656 38.925 36.975 39.750 36.985 C 40.438 36.993 41.113 36.578 41.250 36.062 C 41.404 35.485 40.924 35.479 40.000 36.047 "/></g>
<g fill="#000000FF" stroke="#000000FF">
<path d="M 41.500 12.500 L 43.000 14.000 41.500 12.500 L 40.000 11.000 41.500 12.500 "/></g>
<g fill="#FFD2C9FF" stroke="#FFD2C9FF">
<path d="M 43.387 30.157 C 44.776 30.963 45.090 30.955 44.578 30.126 C 44.195 29.507 43.346 29.014 42.691 29.030 C 42.036 29.047 42.349 29.554 43.387 30.157 "/></g>
<g fill="#1C0000FF" stroke="#1C0000FF">
<path d="M 11.378 33.378 L 10.500 34.256 11.378 33.378 L 12.256 32.500 11.378 33.378 "/></g>
<g fill="#371300FF" stroke="#371300FF">
<path d="M 22.800 43.200 C 23.733 44.133 24.000 44.133 24.000 43.200 C 24.000 42.540 23.460 42.000 22.800 42.000 C 21.867 42.000 21.867 42.267 22.800 43.200 "/></g>
</svg>
