<?xml version="1.0" encoding="utf-8"?>
<!DOCTYPE svg PUBLIC "-//W3C//DTD SVG 20010904//EN" "http://www.w3.org/TR/2001/REC-SVG-20010904/DTD/svg10.dtd">
<svg version="1.0" xmlns="http://www.w3.org/2000/svg" width="160pt" height="160pt" viewBox="0 0 160 160" style="" preserveAspectRatio="xMidYMid meet">
<g fill="#E5003BFF" stroke="#E5003BFF">
<path d="M 10.029 82.386 L 10.059 157.500 15.279 147.820 C 18.151 142.497 26.569 125.847 33.987 110.820 C 41.405 95.794 55.917 66.769 66.237 46.320 C 76.557 25.872 85.000 8.733 85.000 8.234 C 85.000 7.708 69.244 7.315 47.500 7.299 L 10.000 7.272 10.029 82.386 "/></g>
<g fill="#A50025FF" stroke="#A50025FF">
<path d="M 73.713 32.125 C 66.820 45.531 58.158 62.589 54.466 70.032 L 47.751 83.564 66.024 119.532 C 76.074 139.314 84.574 155.821 84.913 156.214 C 85.701 157.128 118.000 84.144 118.000 81.449 C 118.000 80.339 110.856 63.303 102.123 43.591 L 86.247 7.751 73.713 32.125 "/></g>
<g fill="#E5003BFF" stroke="#E5003BFF">
<path d="M 135.808 42.103 C 127.178 61.619 119.434 79.592 118.600 82.043 C 117.766 84.494 110.114 102.250 101.596 121.500 L 86.110 156.500 119.061 156.763 L 152.013 157.027 151.756 81.823 L 151.500 6.620 135.808 42.103 "/></g>
</svg>
