<?xml version="1.0" encoding="utf-8"?>
<!DOCTYPE svg PUBLIC "-//W3C//DTD SVG 20010904//EN" "http://www.w3.org/TR/2001/REC-SVG-20010904/DTD/svg10.dtd">
<svg version="1.0" xmlns="http://www.w3.org/2000/svg" width="64pt" height="64pt" viewBox="0 0 64 64" style="" preserveAspectRatio="xMidYMid meet">
<g fill="#067BEFFF" stroke="#067BEFFF">
<path d="M 2.923 2.923 L 0.000 5.846 -0.000 32.000 L -0.000 58.154 2.923 61.077 L 5.846 64.000 32.000 64.000 L 58.154 64.000 61.077 61.077 L 64.000 58.154 64.000 32.000 L 64.000 5.846 61.077 2.923 L 58.154 0.000 32.000 0.000 L 5.846 0.000 2.923 2.923 M 27.198 17.444 C 30.398 18.819 33.599 24.339 33.899 28.998 C 34.058 31.472 34.399 33.836 34.655 34.251 C 35.555 35.707 29.847 44.659 26.914 46.392 C 22.776 48.836 13.447 48.371 10.191 45.558 C 6.640 42.490 5.193 39.034 4.914 32.959 C 4.411 22.008 11.261 14.682 20.739 16.035 C 23.358 16.409 26.264 17.043 27.198 17.444 M 43.447 26.722 C 43.968 28.081 44.281 28.163 44.930 27.113 C 46.139 25.158 54.099 24.542 56.349 26.231 C 58.494 27.840 59.894 34.058 59.956 42.250 C 60.000 47.982 59.991 48.000 57.000 48.000 L 54.000 48.000 54.000 39.700 C 54.000 30.873 53.187 29.000 49.357 29.000 C 45.644 29.000 44.000 32.598 44.000 40.723 C 44.000 47.769 43.923 48.000 41.562 48.000 C 39.144 48.000 39.122 47.911 38.812 36.913 C 38.641 30.815 38.688 25.640 38.917 25.413 C 39.989 24.351 42.855 25.179 43.447 26.722 "/></g>
<g fill="#067BEFFF" stroke="#067BEFFF">
<path d="M 13.521 22.388 C 12.207 23.702 10.828 26.402 10.455 28.388 C 8.848 36.953 12.910 44.000 19.455 44.000 C 23.799 44.000 26.451 41.564 28.101 36.057 C 29.527 31.297 28.152 25.152 24.943 21.943 C 22.155 19.155 16.534 19.375 13.521 22.388 "/></g>
</svg>
