<?xml version="1.0" standalone="no"?><!DOCTYPE svg PUBLIC "-//W3C//DTD SVG 1.1//EN" "http://www.w3.org/Graphics/SVG/1.1/DTD/svg11.dtd"><svg t="1691325018683" class="icon" viewBox="0 0 1032 1024" version="1.1" xmlns="http://www.w3.org/2000/svg" p-id="50367" xmlns:xlink="http://www.w3.org/1999/xlink" width="201.5625" height="200"><path d="M83.979249 83.493852c-111.662899-8.120938-112.170458 864.879912 0 856.758973-8.120938 111.662899 864.879912 111.662899 856.251415 0 111.662899 8.120938 111.662899-864.879912 0-856.251414C948.859161-27.661489 75.858311-28.169047 83.979249 83.493852zM385.469078 258.094022c-13.704083 85.777409 116.230927 43.142484 126.889658 94.913464 2.030235 42.634925-129.93501 19.794787-126.889658 63.44483 0 15.734318 28.423283 31.976194 63.444829 31.976194 81.71694-1.522676 82.732057 62.937271 0 63.444829-91.360554-23.855256-56.846567 186.274019-63.444829 253.779317 259.87002-21.317463 770.474006 47.202953 126.889658 63.444829H195.13459c0.507559-51.263422-8.120938-246.673496 31.976194-253.779317 18.779669 0 31.468635 41.112249 31.468635 94.913464 6.598262 145.161769 69.027974 106.587313 63.444829-31.976194 13.196524-187.796694-76.641354-84.254733-126.889658-158.358293-3.045352-43.650042 128.919893-20.809904 126.889658-63.444829 0-18.779669-28.423283-31.468635-63.444829-31.468636-82.732057-0.507559-81.71694-64.967505 0-63.444829 41.112249 0 63.444829-22.33258 63.444829-63.444829 0.507559-82.732057 64.967505-81.71694 63.44483 0z m444.113804 126.889658c33.49887 241.090351-206.576364 22.33258-190.334488 221.803123 0 50.755863-12.688966 95.421023-31.468635 95.421023-15.734318 0-31.468635-56.846567-31.468635-126.889658 0-120.798955 6.598262-126.889658 95.421023-126.889658 130.950127 16.749435 130.950127-143.639093 0-126.889659-145.161769-6.090704-106.587313-69.027974 31.976194-63.444829h126.889658v126.889658zM512.358736 638.762997c1.522676 81.71694-62.937271 82.732057-63.444829 0 0.507559-82.732057 64.967505-81.71694 63.444829 0z m317.224146 0c0 35.021546-19.287228 63.444829-44.66516 63.444829-92.375671-10.151173 41.112249-231.954296 44.66516-63.444829z" fill="#FF3333" p-id="50368"></path></svg>