<?xml version="1.0" standalone="no"?><!DOCTYPE svg PUBLIC "-//W3C//DTD SVG 1.1//EN" "http://www.w3.org/Graphics/SVG/1.1/DTD/svg11.dtd"><svg t="1691325242496" class="icon" viewBox="0 0 1024 1024" version="1.1" xmlns="http://www.w3.org/2000/svg" p-id="77718" xmlns:xlink="http://www.w3.org/1999/xlink" width="200" height="200"><path d="M631.2 578.7v-52.8h-93.5L396.2 893.3c-4.2 10.9-14.5 17.5-25.5 17.5-3.3 0-6.6-0.6-9.8-1.8-14.1-5.4-21.1-21.2-15.7-35.3l133.9-347.8h-83.6v52.8c-87.4 0-158.2 70.8-158.2 158.2v116.3c0 40.8 33.1 73.8 73.8 73.8h404.6c40.8 0 73.8-33.1 73.8-73.8V736.9c-0.1-87.4-70.9-158.2-158.3-158.2z" fill="#99C236" p-id="77719"></path><path d="M665.2 364H600l-62.3 161.9h127.5c14.3 0 25.8-11.6 25.8-25.8V389.8c0-14.3-11.6-25.8-25.8-25.8zM361.5 364c-14.3 0-25.8 11.6-25.8 25.8V500c0 14.3 11.6 25.8 25.8 25.8h117.6L541.4 364H361.5z" fill="#FDBA3E" p-id="77720"></path><path d="M620.2 311.6c2.2-5.7 6.2-10.4 11.6-13.3 13.8-7.6 31.7-21.3 48.6-39.2 18.1-19.1 17-40.6 11-52.7-1.4-2.7-3.5-5.1-6-7.2-6.8-5.6-6.5-16.3-0.6-22.8 27.5-30.1 42.5-51.5 39.6-89.4-1.5-18.9-29-29.1-50.2-20.8-18.1 7.1-27 23.3-29.3 29L541.4 364H600l20.2-52.4z" fill="#FF5069" p-id="77721"></path><path d="M345.2 873.6c-5.4 14.1 1.6 29.9 15.7 35.3 3.2 1.2 6.5 1.8 9.8 1.8 11 0 21.3-6.7 25.5-17.5l141.5-367.4h-58.6L345.2 873.6z" fill="#FDBA3E" p-id="77722"></path><path d="M541.4 364l-62.3 161.8h58.6L600 364z" fill="#FF7C20" p-id="77723"></path></svg>