<?xml version="1.0" encoding="utf-8"?>
<!DOCTYPE svg PUBLIC "-//W3C//DTD SVG 20010904//EN" "http://www.w3.org/TR/2001/REC-SVG-20010904/DTD/svg10.dtd">
<svg version="1.0" xmlns="http://www.w3.org/2000/svg" width="32pt" height="32pt" viewBox="0 0 32 32" style="" preserveAspectRatio="xMidYMid meet">
<g fill="#63C1AFFF" stroke="#63C1AFFF">
<path d="M 14.036 4.461 C 12.255 6.358 11.312 6.702 9.928 5.961 C 7.104 4.450 3.462 4.832 1.655 6.829 C -0.567 9.284 -0.429 11.571 2.092 14.092 L 4.183 16.183 2.092 17.648 C -0.747 19.636 -0.538 22.432 2.635 24.927 C 5.582 27.245 8.990 27.610 10.800 25.800 C 11.733 24.867 12.000 24.943 12.000 26.145 C 12.000 28.426 15.291 31.000 18.207 31.000 C 20.065 31.000 21.076 30.230 21.933 28.162 C 22.579 26.602 23.031 24.914 22.936 24.412 C 22.841 23.911 22.823 23.725 22.897 24.000 C 22.970 24.275 23.361 24.050 23.765 23.500 C 24.169 22.950 26.188 21.720 28.250 20.766 C 31.097 19.450 32.000 18.440 32.000 16.573 C 32.000 13.929 28.729 11.000 25.777 11.000 C 24.479 11.000 24.000 10.211 24.000 8.071 C 24.000 2.137 18.196 0.034 14.036 4.461 M 17.800 16.817 C 17.367 19.093 13.650 19.488 11.950 17.440 C 10.766 16.013 10.832 15.596 12.426 14.431 C 14.732 12.744 18.276 14.318 17.800 16.817 "/></g>
</svg>
