<?xml version="1.0" standalone="no"?><!DOCTYPE svg PUBLIC "-//W3C//DTD SVG 1.1//EN" "http://www.w3.org/Graphics/SVG/1.1/DTD/svg11.dtd"><svg t="1691325307393" class="icon" viewBox="0 0 1317 1024" version="1.1" xmlns="http://www.w3.org/2000/svg" p-id="82436" xmlns:xlink="http://www.w3.org/1999/xlink" width="257.2265625" height="200"><path d="M598.454857 40.228571c-52.004571 7.094857-127.561143 36.278857-163.620571 62.976-3.949714 2.925714-8.265143 5.632-12.726857 8.045715a283.062857 283.062857 0 0 0-27.282286 20.992c-47.689143 40.374857-87.771429 94.061714-110.445714 147.382857-12.068571 28.598857-16.091429 40.228571-27.501715 83.017143-3.657143 14.628571-8.850286 21.211429-16.822857 21.211428-13.824 0-84.626286 30.500571-106.569143 45.568-16.457143 11.556571-56.027429 47.177143-63.122285 56.905143C33.353143 537.307429 26.404571 550.034286 14.628571 587.483429 4.315429 620.105143 0 648.192 0 681.984c0 84.626286 29.037714 155.574857 88.502857 215.113143 36.571429 37.010286 79.725714 63.488 123.977143 76.068571 52.150857 14.628571 36.864 14.262857 444.635429 14.262857 342.528 0 377.929143-0.438857 400.896-4.461714 28.013714-5.193143 69.778286-16.237714 74.678857-19.968a69.193143 69.193143 0 0 1 12.434285-6.144c12.141714-4.754286 40.009143-23.04 60.928-39.789714 67.876571-54.491429 110.226286-145.115429 110.518858-235.373714 0-26.112-10.24-85.723429-17.188572-98.962286a37.302857 37.302857 0 0 1-4.022857-11.190857c0-4.754286-20.260571-44.617143-25.892571-51.126857a228.205714 228.205714 0 0 1-12.141715-16.676572c-10.24-16.530286-23.405714-30.573714-49.005714-51.931428-25.673143-22.089143-42.276571-33.645714-55.442286-38.765715a60.708571 60.708571 0 0 1-12.141714-5.851428c-3.730286-2.706286-51.273143-20.260571-64.365714-23.552a413.549714 413.549714 0 0 0-48.859429-4.169143c-44.324571-1.609143-76.434286 1.609143-98.962286 10.166857-7.899429 2.925714-20.187429 7.094857-26.843428 9.508571a302.811429 302.811429 0 0 0-64.438857 35.328 1775.469714 1775.469714 0 0 0-139.556572 126.025143 34455.405714 34455.405714 0 0 1-247.734857 240.201143c-14.555429 13.897143-36.132571 35.328-48.274286 47.542857l-21.942857 22.089143-43.885714-1.974857a726.162286 726.162286 0 0 1-67.291429-5.339429c-68.534857-11.483429-125.074286-63.488-143.652571-132.608-5.485714-20.260571-6.070857-71.387429-1.097143-91.501714 8.777143-34.596571 33.792-74.386286 61.513143-97.792 29.257143-24.576 80.457143-42.861714 119.954286-42.861714 47.616 0 100.352 24.576 147.017143 68.388571 8.923429 8.192 22.089143 19.748571 29.037714 25.746286 7.168 5.851429 20.333714 17.481143 29.037714 25.819429 8.923429 8.484571 17.627429 15.506286 19.748572 15.506285 4.754286 0 15.067429-8.777143 52.443428-45.641143 17.554286-17.554286 32.182857-33.499429 32.182857-35.328 0-1.755429-11.629714-13.165714-25.673143-25.161142a716.946286 716.946286 0 0 1-30.061714-26.550858c-5.12-5.778286-52.150857-44.397714-76.434286-62.537142A325.997714 325.997714 0 0 0 400.091429 394.971429c-12.873143-5.12-23.990857-10.166857-24.429715-11.922286-1.316571-3.437714 15.286857-51.565714 23.259429-66.340572 16.310857-31.524571 37.229714-58.368 67.291428-87.04 27.355429-26.038857 72.118857-50.907429 107.666286-59.830857 5.851429-1.389714 18.285714-4.827429 27.794286-7.168 12.507429-3.437714 27.062857-4.754286 55.369143-4.754285 32.914286 0 41.910857 1.024 65.901714 7.094857 52.443429 13.750857 87.844571 31.597714 123.757714 62.902857 22.966857 20.260571 46.811429 48.274286 61.732572 74.093714a241.371429 241.371429 0 0 0 14.555428 22.674286c6.363429-0.219429 12.873143-1.243429 19.017143-2.998857 9.435429-2.121143 35.474286-4.827429 58.002286-5.558857 45.787429-2.048 47.104-2.633143 37.302857-21.284572-2.633143-5.339429-6.436571-14.628571-8.411429-20.48a96.768 96.768 0 0 0-9.289142-19.748571 103.862857 103.862857 0 0 1-7.314286-13.238857c-5.778286-12.214857-29.769143-44.617143-52.297143-70.509715-27.209143-31.305143-75.702857-67.949714-115.858286-87.625143-9.947429-4.900571-19.821714-9.947429-29.769143-14.921142-4.754286-2.340571-13.165714-5.339429-47.981714-16.237715C722.285714 37.302857 653.385143 32.548571 598.454857 40.228571z m449.974857 461.897143c48.566857 12.434286 75.556571 28.306286 104.009143 61.805715 29.622857 34.157714 40.594286 64.950857 41.910857 115.2 1.170286 31.158857 0.585143 35.766857-5.851428 55.442285-8.996571 28.013714-17.700571 45.421714-31.085715 61.952-25.6 31.597714-62.756571 55.881143-97.938285 64.219429-17.92 2.998857-36.132571 5.12-54.125715 6.144-49.005714 3.145143-445.147429 3.437714-447.049142 0.292571-0.731429-1.316571 27.209143-30.427429 62.317714-64.219428l81.115428-79.286857c28.379429-28.16 137.581714-133.193143 153.161143-147.382858 5.778286-5.193143 11.410286-10.678857 16.749715-16.530285 3.437714-5.339429 39.497143-31.597714 55.076571-39.789715 7.753143-4.169143 22.966857-10.24 33.792-13.897142 10.825143-3.072 21.065143-6.363429 22.381714-6.802286 7.606857-2.852571 51.419429-0.877714 65.536 2.852571z" fill="#00A3FF" p-id="82437"></path></svg>