<?xml version="1.0" encoding="utf-8"?>
<!DOCTYPE svg PUBLIC "-//W3C//DTD SVG 20010904//EN" "http://www.w3.org/TR/2001/REC-SVG-20010904/DTD/svg10.dtd">
<svg version="1.0" xmlns="http://www.w3.org/2000/svg" width="32pt" height="32pt" viewBox="0 0 32 32" style="" preserveAspectRatio="xMidYMid meet">
<g fill="#2A65F5FF" stroke="#2A65F5FF">
<path d="M 4.501 5.995 C 4.144 7.621 4.137 9.412 4.485 9.976 C 4.833 10.539 4.721 11.000 4.237 11.000 C 3.752 11.000 2.850 14.038 2.232 17.750 C 1.614 21.463 0.800 25.535 0.424 26.801 C -0.245 29.053 -0.124 29.096 6.083 28.801 C 12.353 28.503 12.433 28.463 13.086 25.250 C 13.450 23.463 13.354 22.000 12.874 22.000 C 12.393 22.000 12.032 20.988 12.070 19.750 C 12.137 17.603 12.180 17.592 13.000 19.500 C 13.687 21.098 13.874 21.165 13.930 19.832 C 13.968 18.914 14.288 17.412 14.641 16.493 C 15.177 15.097 14.703 14.872 11.753 15.127 C 7.947 15.454 4.566 13.486 5.763 11.638 C 6.168 11.012 8.525 10.500 11.000 10.500 C 15.166 10.500 15.524 10.296 15.816 7.750 C 16.218 4.256 16.939 4.296 20.563 8.011 C 22.178 9.667 23.388 10.567 23.250 10.011 C 23.113 9.455 23.395 9.000 23.878 9.000 C 25.099 9.000 27.445 11.965 26.372 12.152 C 25.893 12.236 26.169 12.349 26.987 12.404 C 27.804 12.459 28.604 13.182 28.764 14.011 C 28.997 15.222 28.133 15.445 24.383 15.147 L 19.713 14.776 20.321 20.138 C 20.666 23.177 20.580 24.646 20.124 23.528 C 19.381 21.709 19.281 21.752 18.835 24.081 C 18.201 27.398 20.266 29.199 24.258 28.812 C 27.466 28.500 27.471 28.491 29.175 19.500 C 31.406 7.728 31.461 8.279 28.089 8.774 C 25.880 9.098 24.904 8.689 24.043 7.080 C 23.418 5.913 23.160 4.550 23.469 4.050 C 23.790 3.531 19.982 3.120 14.590 3.090 L 5.150 3.039 4.501 5.995 "/></g>
<g fill="#00F2FFFF" stroke="#00F2FFFF">
<path d="M 25.000 5.778 C 25.000 7.407 25.593 8.000 27.222 8.000 L 29.444 8.000 27.222 5.778 L 25.000 3.556 25.000 5.778 "/></g>
<g fill="#1052F4FF" stroke="#1052F4FF">
<path d="M 22.000 8.000 L 24.500 10.500 22.000 8.000 L 19.500 5.500 22.000 8.000 "/></g>
<g fill="#2A65F5FF" stroke="#2A65F5FF">
<path d="M 7.030 12.691 C 7.014 13.346 7.507 14.195 8.126 14.578 C 8.955 15.090 8.963 14.776 8.157 13.387 C 7.554 12.349 7.047 12.036 7.030 12.691 "/></g>
<g fill="#1757F4FF" stroke="#1757F4FF">
<path d="M 26.387 12.157 C 27.776 12.963 28.090 12.955 27.578 12.126 C 27.195 11.507 26.346 11.014 25.691 11.030 C 25.036 11.047 25.349 11.554 26.387 12.157 "/></g>
</svg>
