<?xml version="1.0" standalone="no"?><!DOCTYPE svg PUBLIC "-//W3C//DTD SVG 1.1//EN" "http://www.w3.org/Graphics/SVG/1.1/DTD/svg11.dtd"><svg t="1691325081298" class="icon" viewBox="0 0 1024 1024" version="1.1" xmlns="http://www.w3.org/2000/svg" p-id="56701" xmlns:xlink="http://www.w3.org/1999/xlink" width="200" height="200"><path d="M0 0m184.32 0l655.36 0q184.32 0 184.32 184.32l0 655.36q0 184.32-184.32 184.32l-655.36 0q-184.32 0-184.32-184.32l0-655.36q0-184.32 184.32-184.32Z" fill="#67CC4C" p-id="56702"></path><path d="M158.0032 402.1248c-0.53248-23.552 25.27232-48.0256 37.8368-48.0256l125.02016-0.1536a47.04256 47.04256 0 0 0 48.128-48.7936l-0.19456-120.99584c0-10.0864 8.92928-53.13536 100.17792-53.13536s113.00864 55.72608 113.00864 55.72608c205.06624 0 256.52224 46.68416 256.52224 443.86304 0 119.54176-37.43744 279.11168-198.27712 279.11168-19.2512 0-114.01216-8.3456-114.01216-116.56192 0-11.17184 24.49408-90.66496 92.16-89.344a24.75008 24.75008 0 0 1 27.93472 23.94112c0 36.352-45.25056 32.01024-45.25056 65.41312a36.20864 36.20864 0 0 0 39.2192 39.3216c13.48608 0 66.39616-10.86464 66.39616-80.51712 0-141.43488-200.2944-58.1632-200.2944-190.7712 0 75.96032-41.19552 140.75904-118.86592 140.75904s-224.38912-71.50592-229.50912-299.83744z" fill="#363636" p-id="56703"></path><path d="M350.464 152.12544l-177.6128 180.5824c38.28736-6.27712 18.05312-4.49536 142.14144-4.49536 14.40768 0 27.8016-14.58176 27.8016-34.7648 0-100.93568-2.06848-105.03168 7.66976-141.32224z" fill="#363636" opacity=".999" p-id="56704"></path><path d="M631.93088 465.48992c1.36192 5.12 8.6016-3.4304 38.27712 5.96992s38.73792 19.6096 39.936 15.08352c1.96608-7.34208 8.2432-53.504-25.28256-61.75744s-56.4736 27.47392-52.93056 40.704z" fill="#67CC4C" p-id="56705"></path></svg>