<svg class="icon" viewBox="0 0 1024 1024" xmlns="http://www.w3.org/2000/svg" width="200" height="200"><path d="M333.998 313.58A110.08 184.32 78.464 1 0 695.19 239.86a110.08 184.32 78.464 1 0-361.193 73.722z" fill="#BFE5F5"/><path d="M622.08 896c-97.28 0-184.32-20.48-258.56-64-61.44-33.28-117.76-84.48-166.4-145.92L94.72 768c-20.48 15.36-48.64 17.92-69.12 2.56-20.48-12.8-30.72-40.96-23.04-64 40.96-138.24 46.08-166.4 46.08-171.52 0-2.56 0-28.16-20.48-145.92-2.56-15.36 0-30.72 10.24-43.52 7.68-12.8 23.04-20.48 38.4-23.04 17.92-2.56 35.84 2.56 48.64 12.8l94.72 84.48c48.64-56.32 102.4-102.4 163.84-133.12 69.12-35.84 151.04-56.32 238.08-56.32 58.88 0 115.2 10.24 163.84 28.16s89.6 40.96 128 74.24C983.04 394.24 1024 478.72 1024 563.2s-40.96 168.96-110.08 230.4c-35.84 30.72-79.36 56.32-128 74.24C737.28 885.76 680.96 896 622.08 896z" fill="#26A8EC"/><path d="M386.56 788.48c69.12 38.4 145.92 56.32 235.52 56.32 53.76 0 102.4-7.68 148.48-25.6 40.96-15.36 79.36-35.84 110.08-64 58.88-51.2 92.16-122.88 92.16-192 0-71.68-33.28-140.8-92.16-192-30.72-28.16-69.12-48.64-110.08-64-46.08-15.36-94.72-25.6-148.48-25.6-79.36 0-153.6 17.92-220.16 53.76-58.88 33.28-115.2 79.36-163.84 140.8l-17.92 20.48L87.04 376.32c-2.56-2.56-5.12-2.56-7.68-2.56s-2.56 2.56-5.12 2.56c0 2.56-2.56 2.56 0 5.12 15.36 87.04 23.04 138.24 23.04 158.72 0 7.68-2.56 28.16-48.64 181.76 0 2.56 0 5.12 2.56 7.68 2.56 2.56 5.12 2.56 7.68 0l143.36-117.76 15.36 23.04c51.2 66.56 107.52 117.76 168.96 153.6z" fill="#BFE5F5"/><path d="M527.36 762.88c-10.24 0-20.48 0-33.28-2.56-48.64-12.8-94.72-28.16-102.4-66.56-2.56-12.8-2.56-38.4 28.16-61.44 10.24-7.68 17.92-15.36 28.16-20.48 23.04-20.48 48.64-40.96 79.36-40.96 40.96 0 94.72 7.68 120.32 43.52 7.68 12.8 20.48 38.4 5.12 74.24-10.24 25.6-33.28 46.08-61.44 58.88-20.48 10.24-43.52 15.36-64 15.36z" fill="#26A8EC"/><path d="M527.36 609.28c-17.92 0-35.84 15.36-56.32 30.72l-30.72 23.04c-10.24 7.68-15.36 15.36-12.8 20.48 2.56 12.8 28.16 25.6 74.24 35.84 7.68 2.56 15.36 2.56 23.04 2.56 15.36 0 33.28-2.56 46.08-10.24 20.48-10.24 35.84-23.04 43.52-40.96 7.68-15.36 5.12-28.16 0-35.84-10.24-17.92-43.52-25.6-87.04-25.6z" fill="#BFE5F5"/><path d="M281.6 368.64c20.48-79.36 51.2-138.24 92.16-179.2S465.92 128 524.8 128c71.68 0 133.12 25.6 179.2 79.36l38.4 43.52-53.76-2.56h-15.36v-7.68c-38.4-43.52-89.6-64-148.48-64-102.4 0-168.96 66.56-204.8 207.36l-38.4-15.36zM798.72 844.8c-40.96-35.84-74.24-79.36-97.28-125.44-48.64-99.84-48.64-209.92 0-309.76 23.04-48.64 56.32-89.6 97.28-125.44l46.08 28.16c-38.4 33.28-66.56 69.12-87.04 112.64-43.52 92.16-43.52 192 0 281.6 20.48 43.52 51.2 81.92 87.04 112.64l-46.08 25.6z" fill="#26A8EC"/><path d="M780.8 537.6a64 64 0 1 0 128 0 64 64 0 1 0-128 0z" fill="#26A8EC"/><path d="M806.4 537.6a38.4 38.4 0 1 0 76.8 0 38.4 38.4 0 1 0-76.8 0z" fill="#BFE5F5"/></svg>