<?xml version="1.0" encoding="utf-8"?>
<!DOCTYPE svg PUBLIC "-//W3C//DTD SVG 20010904//EN" "http://www.w3.org/TR/2001/REC-SVG-20010904/DTD/svg10.dtd">
<svg version="1.0" xmlns="http://www.w3.org/2000/svg" width="16pt" height="16pt" viewBox="0 0 16 16" style="" preserveAspectRatio="xMidYMid meet">
<g fill="#353332FB" stroke="#353332FB">
<path d="M 5.000 1.000 C 5.000 1.550 3.763 2.053 2.250 2.118 L -0.500 2.237 2.500 2.954 L 5.500 3.671 2.500 4.186 L -0.500 4.700 2.500 4.968 L 5.500 5.237 2.500 6.000 L -0.500 6.763 2.500 7.000 L 5.500 7.237 2.500 8.000 L -0.500 8.763 2.500 9.000 L 5.500 9.237 2.500 10.000 C 0.180 10.590 1.200 10.831 7.000 11.062 L 14.500 11.360 7.000 12.000 L -0.500 12.640 5.750 12.820 C 9.188 12.919 12.000 13.429 12.000 13.952 C 12.000 14.476 9.188 15.064 5.750 15.260 L -0.500 15.615 6.750 15.807 C 12.613 15.963 14.000 15.713 14.000 14.500 C 14.000 13.675 14.424 13.000 14.943 13.000 C 16.104 13.000 15.425 9.025 14.023 7.623 C 12.499 6.099 12.783 5.000 14.700 5.000 C 16.022 5.000 16.133 4.733 15.200 3.800 C 14.540 3.140 13.944 2.915 13.875 3.300 C 13.806 3.685 13.693 3.438 13.623 2.750 C 13.542 1.947 12.294 1.621 10.135 1.837 C 7.902 2.061 7.000 1.810 7.446 1.087 C 7.820 0.482 7.427 0.000 6.559 0.000 C 5.702 0.000 5.000 0.450 5.000 1.000 "/></g>
</svg>
